<svg width="25" height="24" viewBox="0 0 25 24" fill="none" xmlns="http://www.w3.org/2000/svg">
<path d="M5.78376 6.37994C5.59376 6.37994 5.39375 6.29994 5.25375 6.15994C4.96375 5.86994 4.96375 5.38994 5.25375 5.09994L8.88375 1.46994C9.17375 1.17994 9.65376 1.17994 9.94376 1.46994C10.2338 1.75994 10.2338 2.23994 9.94376 2.52994L6.31375 6.15994C6.16375 6.29994 5.97376 6.37994 5.78376 6.37994Z" fill="#000"/>
<path d="M19.4037 6.37994C19.2137 6.37994 19.0237 6.30994 18.8737 6.15994L15.2437 2.52994C14.9537 2.23994 14.9537 1.75994 15.2437 1.46994C15.5337 1.17994 16.0137 1.17994 16.3037 1.46994L19.9337 5.09994C20.2237 5.38994 20.2237 5.86994 19.9337 6.15994C19.7937 6.29994 19.5937 6.37994 19.4037 6.37994Z" fill="#000"/>
<path d="M20.8037 10.6001C20.7337 10.6001 20.6638 10.6001 20.5938 10.6001H20.3638H4.59375C3.89375 10.6101 3.09375 10.6101 2.51375 10.0301C2.05375 9.5801 1.84375 8.8801 1.84375 7.8501C1.84375 5.1001 3.85375 5.1001 4.81375 5.1001H20.3738C21.3338 5.1001 23.3438 5.1001 23.3438 7.8501C23.3438 8.8901 23.1337 9.5801 22.6737 10.0301C22.1537 10.5501 21.4537 10.6001 20.8037 10.6001ZM4.81375 9.1001H20.6038C21.0538 9.1101 21.4738 9.1101 21.6138 8.9701C21.6838 8.9001 21.8337 8.6601 21.8337 7.8501C21.8337 6.7201 21.5538 6.6001 20.3638 6.6001H4.81375C3.62375 6.6001 3.34375 6.7201 3.34375 7.8501C3.34375 8.6601 3.50375 8.9001 3.56375 8.9701C3.70375 9.1001 4.13375 9.1001 4.57375 9.1001H4.81375Z" fill="#000"/>
<path d="M10.3538 18.3C9.94376 18.3 9.60376 17.96 9.60376 17.55V14C9.60376 13.59 9.94376 13.25 10.3538 13.25C10.7638 13.25 11.1038 13.59 11.1038 14V17.55C11.1038 17.97 10.7638 18.3 10.3538 18.3Z" fill="#000"/>
<path d="M14.9537 18.3C14.5437 18.3 14.2037 17.96 14.2037 17.55V14C14.2037 13.59 14.5437 13.25 14.9537 13.25C15.3637 13.25 15.7037 13.59 15.7037 14V17.55C15.7037 17.97 15.3637 18.3 14.9537 18.3Z" fill="#000"/>
<path d="M15.4837 22.75H9.45375C5.87375 22.75 5.07375 20.62 4.76375 18.77L3.35375 10.12C3.28375 9.71 3.56375 9.33 3.97375 9.26C4.38375 9.19 4.76375 9.47 4.83375 9.88L6.24375 18.52C6.53375 20.29 7.13375 21.25 9.45375 21.25H15.4837C18.0537 21.25 18.3437 20.35 18.6737 18.61L20.3537 9.86C20.4337 9.45 20.8237 9.18 21.2337 9.27C21.6437 9.35 21.9037 9.74 21.8237 10.15L20.1437 18.9C19.7537 20.93 19.1037 22.75 15.4837 22.75Z" fill="#000"/>
</svg>
