<svg width="28" height="36" viewBox="0 0 28 36" fill="none" xmlns="http://www.w3.org/2000/svg">
<g clip-path="url(#clip0_223_3477)">
<path d="M4.30846 29.8029L4.3085 29.8029L4.30757 29.7951L1.35505 4.73373C1.30176 4.21634 1.42852 3.75071 1.63502 3.43343C1.84321 3.11354 2.08546 3 2.28128 3H25.9063C26.1021 3 26.3443 3.11354 26.5525 3.43343C26.7591 3.75077 26.8859 4.21651 26.8325 4.73401L23.901 29.7957L23.901 29.7957L23.9002 29.8029C23.6847 31.8143 22.4408 32.993 21.3026 32.993H6.90608C5.76321 32.993 4.52405 31.8151 4.30846 29.8029Z" stroke="#000" stroke-width="1.5"/>
<path d="M4.48962 12.8374H23.562L23.3399 14.7205H4.76007L4.48962 12.8374Z" fill="black"/>
</g>
<defs>
<clipPath id="clip0_223_3477">
<rect width="27" height="36" fill="white" transform="translate(0.59375)"/>
</clipPath>
</defs>
</svg>
