<svg width="27" height="26" viewBox="0 0 27 26" fill="none" xmlns="http://www.w3.org/2000/svg">
<path d="M6.6955 21.1468C6.03467 21.1468 5.41717 20.9193 4.973 20.4968C4.40967 19.9659 4.13883 19.1643 4.23633 18.2976L4.63717 14.7876C4.713 14.1268 5.11383 13.2493 5.57967 12.7726L14.4738 3.35843C16.6947 1.00759 19.013 0.942594 21.3638 3.16343C23.7147 5.38426 23.7797 7.70259 21.5588 10.0534L12.6647 19.4676C12.2097 19.9551 11.3647 20.4101 10.7038 20.5184L7.2155 21.1143C7.03133 21.1251 6.86883 21.1468 6.6955 21.1468ZM17.9513 3.15259C17.1172 3.15259 16.3913 3.67259 15.6547 4.45259L6.7605 13.8776C6.54383 14.1051 6.29467 14.6468 6.25133 14.9609L5.8505 18.4709C5.80717 18.8284 5.89383 19.1209 6.08883 19.3051C6.28383 19.4893 6.57633 19.5543 6.93383 19.5001L10.4222 18.9043C10.7363 18.8501 11.2563 18.5684 11.473 18.3409L20.3672 8.92676C21.7105 7.49676 22.198 6.17509 20.2372 4.33343C19.3705 3.49926 18.623 3.15259 17.9513 3.15259Z" fill="black"/>
<path d="M19.4787 11.8625C19.457 11.8625 19.4245 11.8625 19.4028 11.8625C16.0228 11.5267 13.3037 8.95917 12.7837 5.60083C12.7187 5.15667 13.022 4.745 13.4662 4.66917C13.9103 4.60417 14.322 4.9075 14.3978 5.35167C14.8095 7.97333 16.9328 9.98833 19.5762 10.2483C20.0203 10.2917 20.3453 10.6925 20.302 11.1367C20.2478 11.5483 19.8903 11.8625 19.4787 11.8625Z" fill="black"/>
<path d="M23.4437 24.6458H3.94373C3.49956 24.6458 3.13123 24.2774 3.13123 23.8333C3.13123 23.3891 3.49956 23.0208 3.94373 23.0208H23.4437C23.8879 23.0208 24.2562 23.3891 24.2562 23.8333C24.2562 24.2774 23.8879 24.6458 23.4437 24.6458Z" fill="black"/>
</svg>
