<svg width="32" height="34" viewBox="0 0 32 34" fill="none" xmlns="http://www.w3.org/2000/svg">
<g clip-path="url(#clip0_223_3475)">
<path d="M25.3482 10.5359L25.2478 11.375H26.0929H26.158C26.8497 11.375 27.5072 11.639 27.9873 12.0997C28.4663 12.5595 28.7294 13.1762 28.7294 13.8125C28.7294 14.4488 28.4663 15.0656 27.9873 15.5253C27.5072 15.986 26.8497 16.25 26.158 16.25H6.22939C5.53767 16.25 4.88018 15.986 4.40009 15.5253C3.92105 15.0656 3.65796 14.4488 3.65796 13.8125C3.65796 13.1762 3.92105 12.5595 4.40009 12.0997C4.88018 11.639 5.53767 11.375 6.22939 11.375H6.29443H7.13952L7.03912 10.5359C6.89202 9.30646 7.0173 8.06077 7.4073 6.88001C7.79733 5.69915 8.4438 4.60849 9.30626 3.68034C10.1688 2.7521 11.2279 2.00737 12.4153 1.49676C13.6027 0.986121 14.8904 0.72168 16.1937 0.72168C17.4969 0.72168 18.7846 0.986121 19.9721 1.49676C21.1594 2.00737 22.2186 2.7521 23.0811 3.68034C23.9435 4.60849 24.59 5.69915 24.98 6.88001C25.37 8.06077 25.4953 9.30646 25.3482 10.5359ZM14.8892 32.4591L14.8893 32.4591L14.8832 32.4469L8.55381 19.875H23.8335L17.5042 32.4469L17.5041 32.4468L17.4982 32.4591C17.3874 32.6894 17.208 32.8891 16.9768 33.0311C16.7453 33.1732 16.4735 33.2503 16.1937 33.2503C15.9139 33.2503 15.642 33.1732 15.4106 33.0311C15.1794 32.8891 14.9999 32.6894 14.8892 32.4591Z" stroke="#1e8651" stroke-width="1.5"/>
</g>
<defs>
<clipPath id="clip0_223_3475">
<rect width="31" height="34" fill="white" transform="translate(0.693726)"/>
</clipPath>
</defs>
</svg>
