<svg width="215" height="144" viewBox="0 0 215 144" fill="none" xmlns="http://www.w3.org/2000/svg">
<path d="M0 136.865H215V144H0V136.865Z" fill="#188352"/>
<path d="M0 58.9868V1.61608H9.01032V50.9873H39.6615V58.9868H0Z" fill="black"/>
<path d="M65.174 59.7949C61.8487 59.7949 58.8721 59.2293 56.2441 58.098C53.6161 56.9129 51.3367 55.2968 49.4059 53.2498C47.5287 51.2027 46.0807 48.8864 45.0616 46.3006C44.0426 43.661 43.5331 40.8598 43.5331 37.897C43.5331 34.9342 44.0426 32.133 45.0616 29.4934C46.0807 26.8538 47.5287 24.5374 49.4059 22.5443C51.3367 20.4973 53.6161 18.9081 56.2441 17.7769C58.9257 16.5917 61.9023 15.9992 65.174 15.9992C68.4456 15.9992 71.3954 16.5917 74.0234 17.7769C76.705 18.9081 78.9844 20.4973 80.8616 22.5443C82.7923 24.5374 84.2672 26.8538 85.2863 29.4934C86.3053 32.133 86.8148 34.9342 86.8148 37.897C86.8148 40.8598 86.3053 43.661 85.2863 46.3006C84.2672 48.8864 82.7923 51.2027 80.8616 53.2498C78.9844 55.2968 76.705 56.9129 74.0234 58.098C71.3954 59.2293 68.4456 59.7949 65.174 59.7949ZM52.6239 37.9778C52.6239 40.6713 53.187 43.0954 54.3133 45.2502C55.4396 47.405 56.9413 49.1018 58.8185 50.3408C60.6956 51.5798 62.8141 52.1993 65.174 52.1993C67.4802 52.1993 69.5718 51.5798 71.449 50.3408C73.3798 49.048 74.9083 47.3241 76.0346 45.1694C77.1609 42.9607 77.724 40.5366 77.724 37.897C77.724 35.2036 77.1609 32.7794 76.0346 30.6247C74.9083 28.4699 73.3798 26.773 71.449 25.534C69.5718 24.2412 67.4802 23.5947 65.174 23.5947C62.8141 23.5947 60.6956 24.2412 58.8185 25.534C56.9413 26.8269 55.4396 28.5507 54.3133 30.7055C53.187 32.8064 52.6239 35.2305 52.6239 37.9778Z" fill="black"/>
<path d="M114.615 59.7949C111.343 59.7949 108.367 59.2293 105.685 58.098C103.057 56.9129 100.778 55.2968 98.847 53.2498C96.9162 51.2027 95.4145 48.8594 94.3418 46.2198C93.3228 43.5802 92.8133 40.779 92.8133 37.8162C92.8133 33.8299 93.6982 30.1937 95.4681 26.9077C97.2916 23.6217 99.8124 20.9821 103.03 18.9889C106.302 16.9958 110.164 15.9992 114.615 15.9992C118.906 15.9992 122.633 16.9688 125.797 18.9081C129.015 20.7935 131.375 23.3254 132.877 26.5037L124.269 29.251C123.304 27.4733 121.936 26.0997 120.166 25.13C118.45 24.1065 116.546 23.5947 114.454 23.5947C112.094 23.5947 109.949 24.2142 108.018 25.4532C106.141 26.6384 104.639 28.3083 103.513 30.4631C102.44 32.564 101.904 35.015 101.904 37.8162C101.904 40.5097 102.467 42.9607 103.593 45.1694C104.72 47.3241 106.221 49.048 108.099 50.3408C110.029 51.5798 112.175 52.1993 114.535 52.1993C115.983 52.1993 117.377 51.9569 118.718 51.4721C120.112 50.9334 121.319 50.2331 122.338 49.3712C123.357 48.4554 124.081 47.4588 124.51 46.3814L133.199 48.9672C132.287 51.0681 130.919 52.9265 129.096 54.5426C127.326 56.1587 125.208 57.4516 122.74 58.4212C120.327 59.337 117.618 59.7949 114.615 59.7949Z" fill="black"/>
<path d="M138.315 46.6238C138.315 43.9304 139.066 41.5871 140.567 39.5939C142.123 37.5469 144.241 35.9847 146.923 34.9073C149.605 33.776 152.715 33.2104 156.255 33.2104C158.132 33.2104 160.036 33.3451 161.967 33.6144C163.951 33.8838 165.694 34.3147 167.196 34.9073V32.2407C167.196 29.2779 166.311 26.9616 164.541 25.2916C162.771 23.6217 160.224 22.7867 156.899 22.7867C154.539 22.7867 152.313 23.2177 150.221 24.0796C148.13 24.8876 145.904 26.0458 143.544 27.5541L140.567 21.5746C143.356 19.6892 146.145 18.2886 148.934 17.3728C151.777 16.4571 154.753 15.9992 157.864 15.9992C163.495 15.9992 167.92 17.5075 171.138 20.5242C174.41 23.487 176.046 27.7157 176.046 33.2104V48.9672C176.046 49.9907 176.206 50.7179 176.528 51.1489C176.904 51.5798 177.52 51.8222 178.379 51.8761V58.9868C177.574 59.1485 176.85 59.2562 176.206 59.3101C175.563 59.3639 175.027 59.3909 174.597 59.3909C172.72 59.3909 171.299 58.933 170.334 58.0172C169.368 57.1014 168.805 56.024 168.644 54.785L168.403 52.3609C166.579 54.7312 164.246 56.5627 161.404 57.8556C158.561 59.1484 155.692 59.7949 152.796 59.7949C150.007 59.7949 147.513 59.2293 145.314 58.098C143.115 56.9129 141.399 55.3237 140.165 53.3306C138.932 51.3374 138.315 49.1018 138.315 46.6238ZM165.104 49.2096C165.748 48.5093 166.258 47.809 166.633 47.1087C167.008 46.4084 167.196 45.7889 167.196 45.2502V40.4019C165.694 39.8094 164.112 39.3784 162.45 39.1091C160.787 38.7859 159.151 38.6243 157.542 38.6243C154.324 38.6243 151.696 39.2707 149.658 40.5636C147.674 41.8564 146.682 43.6341 146.682 45.8966C146.682 47.1356 147.003 48.3207 147.647 49.452C148.344 50.5832 149.31 51.499 150.543 52.1993C151.83 52.8996 153.413 53.2498 155.29 53.2498C157.22 53.2498 159.071 52.8727 160.841 52.1185C162.611 51.3643 164.032 50.3947 165.104 49.2096Z" fill="black"/>
<path d="M187.747 0H196.597V46.7855C196.597 48.9402 196.918 50.3139 197.562 50.9065C198.206 51.499 199.01 51.7953 199.975 51.7953C201.048 51.7953 202.04 51.6876 202.952 51.4721C203.917 51.2566 204.749 50.9873 205.446 50.664L206.733 57.694C205.446 58.2327 203.917 58.6906 202.148 59.0676C200.378 59.4447 198.796 59.6333 197.401 59.6333C194.398 59.6333 192.038 58.7983 190.322 57.1284C188.605 55.4045 187.747 53.0343 187.747 50.0176V0Z" fill="black"/>
<path d="M0 127.67V70.2994H38.0525V78.299H9.01032V95.4294H33.306V102.944H9.01032V127.67H0Z" fill="black"/>
<path d="M65.5962 128.478C62.271 128.478 59.2944 127.913 56.6663 126.781C54.0383 125.596 51.7589 123.98 49.8282 121.933C47.951 119.886 46.5029 117.57 45.4839 114.984C44.4649 112.344 43.9554 109.543 43.9554 106.58C43.9554 103.618 44.4649 100.816 45.4839 98.1767C46.5029 95.5371 47.951 93.2208 49.8282 91.2276C51.7589 89.1806 54.0383 87.5914 56.6663 86.4602C59.348 85.275 62.3246 84.6825 65.5962 84.6825C68.8678 84.6825 71.8176 85.275 74.4456 86.4602C77.1273 87.5914 79.4067 89.1806 81.2838 91.2276C83.2146 93.2208 84.6895 95.5371 85.7085 98.1767C86.7275 100.816 87.2371 103.618 87.2371 106.58C87.2371 109.543 86.7275 112.344 85.7085 114.984C84.6895 117.57 83.2146 119.886 81.2838 121.933C79.4067 123.98 77.1273 125.596 74.4456 126.781C71.8176 127.913 68.8678 128.478 65.5962 128.478ZM53.0461 106.661C53.0461 109.355 53.6093 111.779 54.7356 113.933C55.8619 116.088 57.3636 117.785 59.2407 119.024C61.1179 120.263 63.2364 120.883 65.5962 120.883C67.9024 120.883 69.9941 120.263 71.8713 119.024C73.802 117.731 75.3306 116.007 76.4569 113.853C77.5832 111.644 78.1463 109.22 78.1463 106.58C78.1463 103.887 77.5832 101.463 76.4569 99.308C75.3306 97.1532 73.802 95.4563 71.8713 94.2173C69.9941 92.9245 67.9024 92.278 65.5962 92.278C63.2364 92.278 61.1179 92.9245 59.2407 94.2173C57.3636 95.5102 55.8619 97.234 54.7356 99.3888C53.6093 101.49 53.0461 103.914 53.0461 106.661Z" fill="black"/>
<path d="M139.738 106.58C139.738 102.54 140.543 98.877 142.152 95.591C143.815 92.2511 146.067 89.6115 148.91 87.6722C151.752 85.6791 155.024 84.6825 158.724 84.6825C161.942 84.6825 164.839 85.5175 167.413 87.1874C170.041 88.8573 172.079 90.9313 173.527 93.4093V68.6833H182.377V117.65C182.377 118.674 182.564 119.401 182.94 119.832C183.315 120.263 183.932 120.506 184.79 120.559V127.67C183.127 127.939 181.84 128.074 180.928 128.074C179.266 128.074 177.845 127.589 176.665 126.62C175.538 125.65 174.948 124.492 174.895 123.145L174.814 119.994C173.205 122.687 171.033 124.788 168.298 126.296C165.563 127.751 162.72 128.478 159.77 128.478C156.874 128.478 154.193 127.913 151.725 126.781C149.312 125.65 147.193 124.061 145.37 122.014C143.6 119.967 142.206 117.624 141.187 114.984C140.221 112.344 139.738 109.543 139.738 106.58ZM173.527 112.479V101.409C172.937 99.6851 171.972 98.1498 170.631 96.8031C169.344 95.4025 167.869 94.2981 166.206 93.4901C164.597 92.6821 162.988 92.278 161.379 92.278C159.502 92.278 157.786 92.6821 156.231 93.4901C154.729 94.2981 153.415 95.3755 152.289 96.7223C151.216 98.069 150.385 99.6043 149.795 101.328C149.205 103.052 148.91 104.857 148.91 106.742C148.91 108.681 149.231 110.513 149.875 112.237C150.519 113.907 151.43 115.415 152.61 116.762C153.844 118.054 155.238 119.078 156.794 119.832C158.403 120.532 160.146 120.883 162.023 120.883C163.203 120.883 164.383 120.667 165.563 120.236C166.796 119.805 167.949 119.213 169.022 118.459C170.148 117.704 171.087 116.815 171.838 115.792C172.642 114.768 173.205 113.664 173.527 112.479Z" fill="black"/>
<path d="M94.1763 110.316C94.1763 104.759 96.3421 99.4307 100.197 95.5019C104.053 91.5731 109.281 89.3659 114.734 89.3659C120.186 89.3659 125.415 91.5731 129.27 95.5019C133.125 99.4307 135.291 104.759 135.291 110.316H129.756C129.756 106.255 128.173 102.361 125.356 99.4904C122.539 96.6194 118.718 95.0065 114.734 95.0065C110.749 95.0065 106.928 96.6194 104.111 99.4904C101.294 102.361 99.7113 106.255 99.7113 110.316H94.1763Z" fill="#188352"/>
<path d="M94.1763 110.316H135.291V114.716C135.291 115.268 134.843 115.716 134.291 115.716H95.1763C94.624 115.716 94.1763 115.268 94.1763 114.716V110.316Z" fill="#188352"/>
<path d="M94.1763 122.194C94.1763 121.642 94.624 121.194 95.1763 121.194H134.291C134.843 121.194 135.291 121.642 135.291 122.194V125.594C135.291 126.146 134.843 126.594 134.291 126.594H95.1763C94.624 126.594 94.1763 126.146 94.1763 125.594V122.194Z" fill="#188352"/>
<path d="M108.478 83.3438C108.478 82.7916 108.925 82.3438 109.478 82.3438H119.989C120.542 82.3438 120.989 82.7916 120.989 83.3438V85.6658C120.989 86.2181 120.542 86.6658 119.989 86.6658H109.478C108.925 86.6658 108.478 86.2181 108.478 85.6658V83.3438Z" fill="#188352"/>
<path d="M112.946 86.6658H116.521V89.4452L114.734 89.3659L112.946 89.4452V86.6658Z" fill="#188352"/>
<path d="M200.93 124.523C200.93 126.707 199.167 128.478 196.992 128.478C194.817 128.478 193.054 126.707 193.054 124.523C193.054 122.338 194.817 120.567 196.992 120.567C199.167 120.567 200.93 122.338 200.93 124.523Z" fill="black"/>
</svg>
