<svg width="25" height="24" viewBox="0 0 25 24" fill="none" xmlns="http://www.w3.org/2000/svg">
<path d="M12.9139 20.5299C10.5839 20.5299 8.25391 20.1599 6.04391 19.4199C5.20391 19.1299 4.56391 18.5399 4.28391 17.7699C3.99391 16.9999 4.09391 16.1499 4.55391 15.3899L5.70391 13.4799C5.94391 13.0799 6.16391 12.2799 6.16391 11.8099V8.91992C6.16391 5.19992 9.19391 2.16992 12.9139 2.16992C16.6339 2.16992 19.6639 5.19992 19.6639 8.91992V11.8099C19.6639 12.2699 19.8839 13.0799 20.1239 13.4899L21.2639 15.3899C21.6939 16.1099 21.7739 16.9799 21.4839 17.7699C21.1939 18.5599 20.5639 19.1599 19.7739 19.4199C17.5739 20.1599 15.2439 20.5299 12.9139 20.5299ZM12.9139 3.66992C10.0239 3.66992 7.66391 6.01992 7.66391 8.91992V11.8099C7.66391 12.5399 7.36391 13.6199 6.99391 14.2499L5.84391 16.1599C5.62391 16.5299 5.56391 16.9199 5.69391 17.2499C5.81391 17.5899 6.11391 17.8499 6.52391 17.9899C10.7039 19.3899 15.1339 19.3899 19.3139 17.9899C19.6739 17.8699 19.9539 17.5999 20.0839 17.2399C20.2139 16.8799 20.1839 16.4899 19.9839 16.1599L18.8339 14.2499C18.4539 13.5999 18.1639 12.5299 18.1639 11.7999V8.91992C18.1639 6.01992 15.8139 3.66992 12.9139 3.66992Z" fill="black"/>
<path d="M14.7739 3.93993C14.7039 3.93993 14.6339 3.92993 14.5639 3.90993C14.2739 3.82993 13.9939 3.76993 13.7239 3.72993C12.8739 3.61993 12.0539 3.67993 11.2839 3.90993C11.0039 3.99993 10.7039 3.90993 10.5139 3.69993C10.3239 3.48993 10.2639 3.18993 10.3739 2.91993C10.7839 1.86993 11.7839 1.17993 12.9239 1.17993C14.0639 1.17993 15.0639 1.85993 15.4739 2.91993C15.5739 3.18993 15.5239 3.48993 15.3339 3.69993C15.1839 3.85993 14.9739 3.93993 14.7739 3.93993Z" fill="black"/>
<path d="M12.9138 22.8101C11.9238 22.8101 10.9638 22.4101 10.2638 21.7101C9.56382 21.0101 9.16382 20.0501 9.16382 19.0601H10.6638C10.6638 19.6501 10.9038 20.2301 11.3238 20.6501C11.7438 21.0701 12.3238 21.3101 12.9138 21.3101C14.1538 21.3101 15.1638 20.3001 15.1638 19.0601H16.6638C16.6638 21.1301 14.9838 22.8101 12.9138 22.8101Z" fill="black"/>
</svg>
