<?xml version="1.0" standalone="no"?>
<!DOCTYPE svg PUBLIC "-//W3C//DTD SVG 20010904//EN"
 "http://www.w3.org/TR/2001/REC-SVG-20010904/DTD/svg10.dtd">
<svg version="1.0" xmlns="http://www.w3.org/2000/svg"
 width="301.000000pt" height="301.000000pt" viewBox="0 0 301.000000 301.000000"
 preserveAspectRatio="xMidYMid meet">
<metadata>
Created by potrace 1.16, written by Peter Selinger 2001-2019
</metadata>
<g transform="translate(0.000000,301.000000) scale(0.100000,-0.100000)"
fill="#000" stroke="#1e8651">
<path d="M1094 2978 c-96 -115 -108 -264 -36 -483 37 -113 37 -211 -1 -282
-15 -29 -27 -59 -27 -68 0 -32 30 -73 61 -84 44 -15 45 -15 77 17 68 67 99
197 82 337 -6 47 -15 98 -21 113 -25 62 -49 165 -49 206 0 42 31 129 50 141 6
3 10 26 10 50 0 35 -5 48 -26 64 -41 32 -87 28 -120 -11z"/>
<path d="M734 2931 c-12 -5 -31 -22 -43 -38 -11 -15 -26 -34 -32 -41 -21 -25
-48 -98 -54 -148 -10 -70 6 -134 61 -256 59 -127 68 -204 35 -268 -11 -22 -21
-52 -21 -66 0 -35 51 -84 87 -84 40 0 57 16 90 80 22 45 28 71 31 141 4 92 -1
114 -58 249 -52 123 -61 165 -45 211 8 22 28 57 45 77 17 21 30 48 30 64 0 56
-73 101 -126 79z" fill="#000"/>
<path d="M1350 2080 c0 -69 -4 -85 -27 -125 l-28 -45 -507 0 -508 0 0 -115 0
-115 1215 0 1215 0 0 115 0 115 -510 0 c-405 0 -510 3 -510 13 0 7 -11 29 -25
49 -21 31 -25 48 -25 112 l0 76 -145 0 -145 0 0 -80z" fill="#000"/>
<path d="M280 1415 l0 -185 -28 0 c-33 0 -70 31 -76 63 -3 12 -7 44 -10 72 -8
63 -25 80 -82 80 -61 0 -83 -28 -84 -106 0 -84 34 -172 82 -213 42 -36 117
-66 167 -66 l31 0 0 -254 c0 -293 11 -368 68 -484 33 -67 107 -156 171 -206
47 -36 149 -85 212 -100 56 -14 152 -16 794 -13 479 2 742 6 765 13 180 55
330 201 394 384 17 48 20 93 23 358 l5 302 37 0 c21 0 60 7 87 17 101 34 142
88 164 219 11 62 10 74 -4 102 -20 39 -58 56 -104 47 -40 -7 -62 -50 -62 -120
0 -59 -32 -95 -85 -95 l-35 0 0 185 0 185 -1215 0 -1215 0 0 -185z" fill="#000"/>
</g>
</svg>
