<svg width="25" height="22" viewBox="0 0 25 22" fill="none" xmlns="http://www.w3.org/2000/svg">
<path d="M15.4937 20.8541H10.0937C5.15371 20.8541 3.05371 18.9199 3.05371 14.4007V10.2849C3.05371 9.90908 3.39371 9.59741 3.80371 9.59741C4.21371 9.59741 4.55371 9.90908 4.55371 10.2849V14.4007C4.55371 18.1499 6.00371 19.4791 10.0937 19.4791H15.4837C19.5737 19.4791 21.0237 18.1499 21.0237 14.4007V10.2849C21.0237 9.90908 21.3637 9.59741 21.7737 9.59741C22.1837 9.59741 22.5237 9.90908 22.5237 10.2849V14.4007C22.5337 18.9199 20.4237 20.8541 15.4937 20.8541Z" fill="black"/>
<path d="M12.7937 11.6874C11.6937 11.6874 10.6937 11.2933 9.9837 10.5691C9.2737 9.84492 8.9437 8.90075 9.0537 7.89242L9.7237 1.76909C9.7637 1.42075 10.0837 1.14575 10.4737 1.14575H15.1437C15.5337 1.14575 15.8537 1.41159 15.8937 1.76909L16.5637 7.89242C16.6737 8.90075 16.3437 9.84492 15.6337 10.5691C14.8937 11.2933 13.8937 11.6874 12.7937 11.6874ZM11.1437 2.52075L10.5437 8.02992C10.4737 8.64409 10.6737 9.22159 11.0937 9.64325C11.9437 10.5049 13.6437 10.5049 14.4937 9.64325C14.9137 9.21242 15.1137 8.63492 15.0437 8.02992L14.4437 2.52075H11.1437Z" fill="black"/>
<path d="M19.1037 11.6874C17.0737 11.6874 15.2637 10.1841 15.0537 8.33242L14.3537 1.90659C14.3337 1.71409 14.4037 1.52159 14.5437 1.37492C14.6837 1.22825 14.8837 1.14575 15.1037 1.14575H18.1537C21.0937 1.14575 22.4637 2.27325 22.8737 5.04159L23.1537 7.58992C23.2737 8.67159 22.9137 9.69825 22.1437 10.4774C21.3737 11.2566 20.2937 11.6874 19.1037 11.6874ZM15.9337 2.52075L16.5537 8.19492C16.6837 9.34075 17.8437 10.3124 19.1037 10.3124C19.8637 10.3124 20.5437 10.0466 21.0337 9.56075C21.5137 9.07492 21.7337 8.42409 21.6637 7.72742L21.3837 5.20659C21.0737 3.13492 20.3437 2.52075 18.1537 2.52075H15.9337V2.52075Z" fill="black"/>
<path d="M6.43372 11.6874C5.24372 11.6874 4.16372 11.2566 3.39372 10.4774C2.62372 9.69825 2.26372 8.67159 2.38372 7.58992L2.65372 5.06909C3.07372 2.27325 4.44372 1.14575 7.38372 1.14575H10.4337C10.6437 1.14575 10.8437 1.22825 10.9937 1.37492C11.1437 1.52159 11.2037 1.71409 11.1837 1.90659L10.4837 8.33242C10.2737 10.1841 8.46372 11.6874 6.43372 11.6874ZM7.38372 2.52075C5.19372 2.52075 4.46372 3.12575 4.14372 5.22492L3.87372 7.72742C3.79372 8.42409 4.02372 9.07492 4.50372 9.56075C4.98372 10.0466 5.66372 10.3124 6.43372 10.3124C7.69372 10.3124 8.86372 9.34075 8.98372 8.19492L9.60372 2.52075H7.38372V2.52075Z" fill="black"/>
<path d="M15.2937 20.8541H10.2937C9.8837 20.8541 9.5437 20.5424 9.5437 20.1666V17.8749C9.5437 15.9499 10.6937 14.8958 12.7937 14.8958C14.8937 14.8958 16.0437 15.9499 16.0437 17.8749V20.1666C16.0437 20.5424 15.7037 20.8541 15.2937 20.8541ZM11.0437 19.4791H14.5437V17.8749C14.5437 16.7199 14.0537 16.2708 12.7937 16.2708C11.5337 16.2708 11.0437 16.7199 11.0437 17.8749V19.4791Z" fill="black"/>
</svg>
