<svg width="30" height="36" viewBox="0 0 30 36" fill="none" xmlns="http://www.w3.org/2000/svg">
  <g clip-path="url(#clip0_223_3473)">
    <path d="M12.1946 16.872L11.7961 17.0648L11.8142 17.5071L12.4982 34.2469C12.4982 34.2472 12.4982 34.2474 12.4982 34.2477C12.5113 34.5922 12.4126 34.8869 12.2751 35.0797C12.1374 35.2727 11.9964 35.3249 11.9 35.3249H8.50618C8.41118 35.3249 8.26997 35.2732 8.13198 35.0808C7.99454 34.8892 7.89486 34.5951 7.90798 34.2476C7.90799 34.2473 7.908 34.247 7.90801 34.2468L8.592 17.5071L8.61009 17.0643L8.21101 16.8717C6.3365 15.9668 4.93892 13.6342 4.93892 10.1249C4.93892 7.76243 5.74056 1.51773 5.78709 1.15525L5.78718 1.15455L5.78721 1.15456L5.78795 1.14829C5.82241 0.858446 6.05162 0.670802 6.39167 0.674809C6.55569 0.676743 6.69928 0.72977 6.79774 0.810762C6.88231 0.880316 6.95989 0.990659 6.98273 1.18063V11.0741V11.1695L7.00915 11.2611C7.11761 11.6372 7.43782 11.7884 7.5817 11.8408C7.7565 11.9045 7.94057 11.9245 8.09591 11.9231C8.25098 11.9217 8.4332 11.8985 8.60434 11.8331C8.73338 11.7837 9.07987 11.6225 9.16649 11.2141L9.17823 11.1588L9.18059 11.1022C9.21435 10.2933 9.30469 8.18104 9.3934 6.1068C9.49309 3.77578 9.59073 1.49271 9.60373 1.16111C9.65055 0.85358 9.88452 0.681888 10.2024 0.681888C10.5214 0.681888 10.7535 0.854378 10.7975 1.16287L10.7981 1.17505L10.8018 1.25744L10.8143 1.543L10.8564 2.52044C10.8909 3.32497 10.9366 4.39846 10.9843 5.52168C11.0798 7.76818 11.1832 10.2131 11.2203 11.1022L11.2226 11.1588L11.2344 11.2141C11.3214 11.6243 11.6707 11.7849 11.7984 11.8335C11.9695 11.8986 12.1518 11.9217 12.307 11.9231C12.4622 11.9244 12.6468 11.9046 12.822 11.8406C12.9649 11.7884 13.2926 11.634 13.3954 11.2477L13.4181 11.1624V11.0741V1.18086C13.4408 0.993935 13.5177 0.884379 13.603 0.814543C13.7023 0.733135 13.8474 0.679623 14.0128 0.677434C14.3562 0.672891 14.584 0.860834 14.6182 1.14829L15.2885 1.06861L14.619 1.15455C14.6646 1.50952 15.4673 7.76791 15.4673 10.1249C15.4673 13.64 14.0651 15.9667 12.1946 16.872ZM22.2832 21.1981L22.3013 20.9019L22.0954 20.6883C18.1592 16.6065 17.9255 11.5959 19.2203 7.55711C19.869 5.53389 20.8952 3.78119 22.0031 2.54611C23.1386 1.28016 24.2495 0.674856 25.051 0.674856C25.1444 0.674856 25.2786 0.723378 25.4123 0.901254C25.5465 1.07962 25.6487 1.35589 25.6487 1.68736V34.3124C25.6487 34.6482 25.546 34.9238 25.4129 35.1004C25.2805 35.2759 25.1466 35.3249 25.051 35.3249H22.0814C21.9847 35.3249 21.8395 35.2709 21.6998 35.0698C21.561 34.87 21.4649 34.5663 21.4876 34.2153L21.4878 34.2129L22.2832 21.1981Z" stroke="#1e8651" stroke-width="1.35"/>
  </g>  
  <defs>
    <clipPath id="clip0_223_3473">
      <rect width="29" height="36" fill="white" transform="translate(0.793701)"/>
    </clipPath>
  </defs>
</svg>
